<?xml version="1.0" standalone="no"?>
<!DOCTYPE svg PUBLIC "-//W3C//DTD SVG 20010904//EN"
 "http://www.w3.org/TR/2001/REC-SVG-20010904/DTD/svg10.dtd">
<svg version="1.0" xmlns="http://www.w3.org/2000/svg"
 width="300.000000pt" height="300.000000pt" viewBox="0 0 300.000000 300.000000"
 preserveAspectRatio="xMidYMid meet">
<metadata>
Created by potrace 1.11, written by Peter Selinger 2001-2013
</metadata>
<g transform="translate(0.000000,300.000000) scale(0.100000,-0.100000)"
fill="#000000" stroke="none">
<path d="M1495 2970 c-94 -20 -213 -136 -229 -225 -11 -57 10 -112 63 -165 71
-71 116 -83 293 -75 133 6 145 5 176 -14 46 -30 61 -65 37 -91 -10 -11 -25
-20 -34 -20 -8 0 -43 27 -76 60 l-60 59 -62 -60 c-35 -34 -63 -65 -63 -69 0
-5 29 -38 64 -74 69 -69 120 -93 173 -80 84 19 200 129 223 208 24 87 -27 184
-128 244 -46 27 -50 27 -217 27 -177 0 -204 5 -225 45 -12 23 -4 47 21 60 28
16 34 13 85 -40 26 -27 51 -50 54 -50 9 0 130 110 130 119 0 12 -80 99 -107
117 -35 22 -81 32 -118 24z"/>
<path d="M1119 2634 l-57 -56 152 -190 c190 -239 194 -245 116 -177 -36 30
-127 108 -202 173 l-138 118 -47 -40 c-27 -22 -59 -52 -73 -66 -30 -33 -39
-16 148 -262 78 -102 141 -188 140 -189 -2 -2 -91 75 -198 171 l-195 174 -66
-66 -67 -67 26 -22 c15 -12 155 -122 311 -244 l284 -223 75 75 75 75 -148 189
c-82 103 -165 208 -184 233 -43 54 -56 63 206 -149 116 -94 215 -171 220 -171
5 0 42 31 83 69 l75 69 -25 34 c-82 114 -446 597 -450 598 -3 0 -31 -25 -61
-56z"/>
<path d="M2046 2352 c-6 -9 58 -168 75 -186 12 -13 12 20 -1 43 -7 14 -3 24
20 46 28 27 39 28 83 10 9 -4 17 -3 17 2 0 6 -37 27 -82 48 -110 49 -105 48
-112 37z m69 -39 c19 -9 35 -19 35 -22 0 -3 -12 -14 -25 -24 -24 -18 -25 -18
-40 19 -22 53 -22 52 30 27z"/>
<path d="M506 2036 l-89 -83 222 -322 c123 -176 226 -323 230 -325 4 -3 31 19
61 49 l53 53 -57 78 -56 79 34 34 34 34 76 -63 76 -63 66 65 65 64 -301 237
c-165 131 -306 240 -313 242 -6 2 -52 -33 -101 -79z m224 -230 c58 -49 107
-91 109 -93 3 -2 -5 -13 -17 -25 -13 -14 -25 -19 -30 -13 -46 50 -192 236
-181 230 8 -5 61 -49 119 -99z"/>
<path d="M2415 2090 c-29 -11 -92 -83 -110 -125 -38 -92 -23 -184 36 -212 86
-41 209 98 209 238 0 85 -61 130 -135 99z"/>
<path d="M2030 2054 c-68 -25 -100 -68 -100 -137 0 -108 120 -165 216 -102 72
47 66 170 -10 220 -26 17 -83 27 -106 19z"/>
<path d="M1610 1921 c0 -6 11 -22 25 -37 l25 -27 -22 -25 c-41 -43 -57 -47
-87 -18 -15 15 -31 23 -34 19 -10 -9 124 -144 136 -136 5 3 -6 21 -24 39 l-33
34 37 37 37 37 35 -34 c62 -61 50 -22 -16 49 -63 68 -79 80 -79 62z"/>
<path d="M2655 1894 c-75 -39 -125 -124 -125 -215 0 -95 55 -141 135 -113 107
36 179 200 130 294 -26 51 -82 65 -140 34z"/>
<path d="M274 1785 c-30 -15 -90 -66 -154 -130 l-104 -105 54 -57 c130 -136
485 -493 490 -493 3 1 34 27 70 60 l65 59 -108 108 -107 109 36 34 c19 19 46
53 59 75 55 97 42 149 -63 258 -109 113 -149 126 -238 82z m102 -209 c70 -70
78 -96 44 -137 l-19 -24 -37 40 c-20 22 -59 64 -88 93 l-51 53 24 20 c37 31
59 23 127 -45z"/>
<path d="M2052 1669 c-171 -54 -277 -234 -243 -410 44 -222 258 -386 477 -366
136 13 252 89 309 204 40 81 46 191 15 282 -78 232 -329 362 -558 290z"/>
<path d="M1256 1581 c-26 -27 -44 -51 -38 -55 5 -3 18 4 28 15 18 20 18 19 81
-43 34 -34 66 -59 70 -55 4 4 -21 36 -55 70 -62 63 -63 63 -42 82 20 18 26 35
12 35 -4 0 -29 -22 -56 -49z"/>
<path d="M2780 1558 c-19 -13 -44 -43 -58 -68 -65 -123 34 -225 134 -138 43
38 64 82 64 136 0 83 -69 118 -140 70z"/>
<path d="M1176 1143 c-379 -371 -359 -349 -352 -380 8 -32 58 -83 83 -83 8 0
58 41 109 92 74 72 91 94 82 105 -9 11 -28 -3 -98 -72 -48 -47 -94 -85 -102
-85 -19 0 -38 20 -38 41 0 10 126 140 280 291 229 224 285 273 307 273 22 0
29 -5 31 -23 3 -18 -14 -41 -73 -99 -63 -62 -74 -77 -64 -90 10 -12 25 -2 91
64 61 60 78 84 78 106 0 39 -40 77 -81 77 -28 0 -58 -26 -253 -217z"/>
<path d="M1000 1322 c0 -14 129 -136 137 -129 4 4 -22 37 -57 72 -61 61 -80
75 -80 57z"/>
<path d="M1573 1186 c-33 -18 -603 -580 -600 -591 7 -22 30 -6 124 85 54 53
126 122 161 155 l63 59 27 -28 27 -28 -165 -158 c-133 -128 -163 -161 -152
-171 14 -15 0 -27 379 345 164 162 243 246 243 261 0 50 -66 94 -107 71z m66
-40 c18 -21 6 -37 -123 -166 l-116 -115 -27 28 -28 28 121 119 c120 120 148
136 173 106z"/>
<path d="M780 1114 c0 -4 18 -38 40 -76 22 -38 36 -67 32 -65 -4 2 -35 21 -70
42 -36 21 -67 34 -72 29 -5 -5 9 -38 30 -74 21 -36 37 -67 35 -69 -2 -2 -31
13 -65 34 -33 20 -66 35 -72 33 -7 -3 28 -28 76 -57 48 -29 90 -50 94 -46 4 3
-10 37 -31 75 -20 37 -37 70 -37 74 0 3 28 -12 63 -34 59 -38 87 -48 87 -33 0
13 -94 173 -102 173 -4 0 -8 -3 -8 -6z"/>
<path d="M1685 983 c-194 -185 -526 -519 -531 -535 -15 -47 53 -111 99 -93 14
6 158 141 321 301 259 254 294 293 281 304 -14 12 -47 -17 -248 -216 -257
-255 -351 -345 -374 -358 -24 -13 -58 26 -44 51 5 11 141 147 301 303 160 156
289 288 287 294 -7 22 -25 13 -92 -51z"/>
<path d="M1817 785 c-76 -74 -109 -130 -189 -314 -11 -28 -57 -83 -122 -148
-82 -84 -108 -104 -127 -101 -16 2 -25 11 -27 27 -3 19 14 42 79 107 64 65 81
86 71 96 -9 9 -26 -2 -74 -47 -101 -95 -108 -104 -108 -136 0 -39 39 -79 77
-79 22 0 51 22 134 103 105 101 107 103 179 252 64 131 82 159 140 218 48 47
75 67 93 67 21 0 37 -16 37 -37 0 -3 -36 -43 -81 -88 -74 -76 -89 -105 -55
-105 19 0 166 155 166 175 0 45 -40 84 -86 85 -25 0 -45 -14 -107 -75z"/>
<path d="M2074 707 c-6 -7 -147 -146 -315 -309 l-304 -298 42 -42 c33 -33 45
-40 55 -30 9 9 6 18 -17 42 l-29 31 144 144 c80 80 149 145 154 145 5 0 20
-10 33 -22 34 -32 57 -9 25 25 -12 13 -22 28 -22 33 0 5 21 29 48 53 26 24 82
78 124 119 l78 76 30 -29 c23 -22 33 -26 42 -17 9 9 3 21 -27 52 -43 44 -45
45 -61 27z"/>
<path d="M2226 658 c-20 -29 -20 -41 2 -68 36 -44 102 -20 102 36 0 52 -74 75
-104 32z m78 -4 c18 -18 20 -32 6 -54 -8 -13 -10 -13 -14 0 -3 8 -4 24 -3 35
1 14 -5 21 -20 23 -21 3 -23 -1 -22 -35 1 -21 3 -30 6 -20 4 14 8 16 19 6 19
-16 18 -29 -4 -29 -24 0 -42 19 -42 45 0 42 44 59 74 29z m-24 -14 c0 -5 -4
-10 -10 -10 -5 0 -10 5 -10 10 0 6 5 10 10 10 6 0 10 -4 10 -10z"/>
</g>
</svg>
